<svg width="51" height="50" viewBox="0 0 51 50" fill="none" xmlns="http://www.w3.org/2000/svg">
<path d="M25.5 0C22.1513 0 18.8354 0.662698 15.7416 1.95026C12.6478 3.23782 9.83667 5.12502 7.46878 7.50412C2.6866 12.3089 0 18.8256 0 25.6207C0 36.945 7.3185 46.5528 17.442 49.9603C18.717 50.1653 19.125 49.371 19.125 48.6793V44.3494C12.0615 45.8866 10.557 40.9162 10.557 40.9162C9.384 37.9442 7.7265 37.15 7.7265 37.15C5.406 35.5615 7.905 35.6127 7.905 35.6127C10.455 35.7921 11.8065 38.2517 11.8065 38.2517C14.025 42.146 17.7735 40.9931 19.227 40.3782C19.4565 38.7128 20.1195 37.5855 20.8335 36.945C15.1725 36.3045 9.231 34.1011 9.231 24.3396C9.231 21.4957 10.2 19.2155 11.8575 17.3964C11.6025 16.7559 10.71 14.0914 12.1125 10.6326C12.1125 10.6326 14.2545 9.94082 19.125 13.2459C21.1395 12.6822 23.3325 12.4004 25.5 12.4004C27.6675 12.4004 29.8605 12.6822 31.875 13.2459C36.7455 9.94082 38.8875 10.6326 38.8875 10.6326C40.29 14.0914 39.3975 16.7559 39.1425 17.3964C40.8 19.2155 41.769 21.4957 41.769 24.3396C41.769 34.1267 35.802 36.2789 30.1155 36.9194C31.0335 37.7136 31.875 39.2765 31.875 41.6592V48.6793C31.875 49.371 32.283 50.1909 33.5835 49.9603C43.707 46.5271 51 36.945 51 25.6207C51 22.2561 50.3404 18.9245 49.0589 15.8161C47.7774 12.7076 45.8991 9.88322 43.5312 7.50412C41.1633 5.12502 38.3522 3.23782 35.2584 1.95026C32.1646 0.662698 28.8487 0 25.5 0Z" fill="white"/>
</svg>
