<svg width="15" height="15" viewBox="0 0 100 100" fill="none" xmlns="http://www.w3.org/2000/svg">
<path d="M88.8889 55.5556V88.8889C88.8889 91.8357 87.7183 94.6619 85.6345 96.7456C83.5508 98.8294 80.7246 100 77.7778 100H11.1111C8.16426 100 5.33811 98.8294 3.25437 96.7456C1.17063 94.6619 0 91.8357 0 88.8889V22.2222C0 19.2754 1.17063 16.4492 3.25437 14.3655C5.33811 12.2817 8.16426 11.1111 11.1111 11.1111H44.4444V22.2222H11.1111V88.8889H77.7778V55.5556H88.8889ZM55.5556 0V11.1111H81.0333L37.7389 54.4056L45.5944 62.2611L88.8889 18.9667V44.4444H100V0H55.5556Z" fill="white"/>
</svg>
