<svg width="51" height="51" viewBox="0 0 51 51" fill="none" xmlns="http://www.w3.org/2000/svg">
<path id="Vector" d="M25.5 0.5C22.1513 0.5 18.8354 1.1627 15.7416 2.45026C12.6478 3.73782 9.83667 5.62502 7.46878 8.00412C2.6866 12.8089 0 19.3256 0 26.1207C0 37.445 7.3185 47.0528 17.442 50.4603C18.717 50.6653 19.125 49.871 19.125 49.1793V44.8494C12.0615 46.3866 10.557 41.4162 10.557 41.4162C9.384 38.4442 7.7265 37.65 7.7265 37.65C5.406 36.0615 7.905 36.1127 7.905 36.1127C10.455 36.2921 11.8065 38.7517 11.8065 38.7517C14.025 42.646 17.7735 41.4931 19.227 40.8782C19.4565 39.2128 20.1195 38.0855 20.8335 37.445C15.1725 36.8045 9.231 34.6011 9.231 24.8396C9.231 21.9957 10.2 19.7155 11.8575 17.8964C11.6025 17.2559 10.71 14.5914 12.1125 11.1326C12.1125 11.1326 14.2545 10.4408 19.125 13.7459C21.1395 13.1822 23.3325 12.9004 25.5 12.9004C27.6675 12.9004 29.8605 13.1822 31.875 13.7459C36.7455 10.4408 38.8875 11.1326 38.8875 11.1326C40.29 14.5914 39.3975 17.2559 39.1425 17.8964C40.8 19.7155 41.769 21.9957 41.769 24.8396C41.769 34.6267 35.802 36.7789 30.1155 37.4194C31.0335 38.2136 31.875 39.7765 31.875 42.1592V49.1793C31.875 49.871 32.283 50.6909 33.5835 50.4603C43.707 47.0271 51 37.445 51 26.1207C51 22.7561 50.3404 19.4245 49.0589 16.3161C47.7774 13.2076 45.8991 10.3832 43.5312 8.00412C41.1633 5.62502 38.3522 3.73782 35.2584 2.45026C32.1646 1.1627 28.8487 0.5 25.5 0.5Z" fill="black"/>
</svg>
