<svg width="50" height="51" viewBox="0 0 50 51" fill="none" xmlns="http://www.w3.org/2000/svg">
<path id="Vector" d="M44.4444 0.5C45.9179 0.5 47.3309 1.08532 48.3728 2.12718C49.4147 3.16905 50 4.58213 50 6.05556V44.9444C50 46.4179 49.4147 47.8309 48.3728 48.8728C47.3309 49.9147 45.9179 50.5 44.4444 50.5H5.55556C4.08213 50.5 2.66905 49.9147 1.62718 48.8728C0.585316 47.8309 0 46.4179 0 44.9444V6.05556C0 4.58213 0.585316 3.16905 1.62718 2.12718C2.66905 1.08532 4.08213 0.5 5.55556 0.5H44.4444ZM43.0556 43.5556V28.8333C43.0556 26.4316 42.1015 24.1283 40.4032 22.4301C38.705 20.7318 36.4017 19.7778 34 19.7778C31.6389 19.7778 28.8889 21.2222 27.5556 23.3889V20.3056H19.8056V43.5556H27.5556V29.8611C27.5556 27.7222 29.2778 25.9722 31.4167 25.9722C32.4481 25.9722 33.4372 26.3819 34.1665 27.1112C34.8958 27.8406 35.3056 28.8297 35.3056 29.8611V43.5556H43.0556ZM10.7778 15.9444C12.0155 15.9444 13.2024 15.4528 14.0776 14.5776C14.9528 13.7024 15.4444 12.5155 15.4444 11.2778C15.4444 8.69444 13.3611 6.58333 10.7778 6.58333C9.53273 6.58333 8.33868 7.07792 7.4583 7.9583C6.57792 8.83868 6.08333 10.0327 6.08333 11.2778C6.08333 13.8611 8.19444 15.9444 10.7778 15.9444ZM14.6389 43.5556V20.3056H6.94444V43.5556H14.6389Z" fill="black"/>
</svg>
